<svg width="123" height="68" viewBox="0 0 123 68" fill="none" xmlns="http://www.w3.org/2000/svg">
<g clip-path="url(#clip0_175_237)">
<path fill-rule="evenodd" clip-rule="evenodd" d="M3.24019 16.7801L5.54019 45.2501C5.85019 48.1901 6.54019 50.0801 7.38019 51.1201C7.72886 51.5132 8.18045 51.8011 8.68403 51.9513C9.1876 52.1015 9.72312 52.108 10.2302 51.9701H10.5002H21.7802C22.3975 52.0339 23.0211 51.9472 23.5976 51.7173C24.174 51.4874 24.6862 51.1212 25.0902 50.6501L25.1402 50.5901C25.9707 49.2071 26.3807 47.6122 26.3202 46.0001V14.5701C26.271 14.4322 26.2473 14.2865 26.2502 14.1401C26.2453 14.1002 26.2453 14.0599 26.2502 14.0201C26.2053 13.6007 26.0703 13.196 25.8546 12.8335C25.6389 12.4711 25.3474 12.1595 25.0002 11.9201C23.8058 11.3007 22.4611 11.0304 21.1202 11.1401H7.00019C6.41688 11.1082 5.83318 11.1955 5.28472 11.3966C4.73627 11.5978 4.23455 11.9086 3.81019 12.3101C3.14019 13.1101 2.90019 14.4901 3.23019 16.6401V16.7801H3.24019ZM93.1002 15.5701C93.0987 15.092 93.1287 14.6143 93.1902 14.1401L88.0002 10.6501C87.2502 10.1501 86.4302 9.57008 85.6002 8.99008C82.6002 6.91008 79.6002 4.77008 76.2702 3.90008C74.3282 3.39963 72.3351 3.12448 70.3302 3.08008C68.4915 3.03278 66.6548 3.23461 64.8702 3.68008C63.8298 3.94383 62.8232 4.32634 61.8702 4.82008C61.0312 5.26245 60.2545 5.81391 59.5602 6.46008L56.0002 10.6301C55.8928 10.8332 55.7427 11.0106 55.5602 11.1501L45.8902 22.6601C46.015 23.3361 46.3034 23.9712 46.7302 24.5101C47.1986 25.0834 47.8138 25.5189 48.5102 25.7701C49.3168 26.0592 50.1776 26.1651 51.0302 26.0801C52.6525 25.9224 54.1912 25.2853 55.4502 24.2501L58.1402 22.0001C58.8202 21.4401 59.3902 20.9201 59.9502 20.4101C61.1067 19.2862 62.373 18.2812 63.7302 17.4101C66.7302 15.6101 69.7302 15.5501 72.7302 20.5301L87.9302 48.0001H93.1002V15.5701ZM94.3302 11.1801C94.5642 10.8525 94.8323 10.5508 95.1302 10.2801C96.733 9.00213 98.7546 8.36748 100.8 8.50008H114C116.77 8.50008 119 8.99008 120.58 10.1901C122.31 11.5301 123.13 13.5601 122.78 16.4801L119.86 46.6901C119.812 48.9608 119.042 51.1572 117.66 52.9601C116.953 53.7534 116.067 54.3681 115.077 54.754C114.086 55.1398 113.018 55.2858 111.96 55.1801H100.09C98.5553 55.3004 97.0322 54.832 95.8302 53.8701C94.9128 53.1056 94.1781 52.1455 93.6802 51.0601H89.5702C90.0893 52.5177 90.1174 54.1051 89.6502 55.5801C89.1883 56.9639 88.3293 58.1812 87.1802 59.0801C86.0556 59.9683 84.7241 60.5566 83.3102 60.7901C81.9044 61.0267 80.4606 60.8675 79.1402 60.3301C77.8199 61.8021 76.1219 62.8845 74.2302 63.4601C72.5048 63.9303 70.6753 63.8463 69.0002 63.2201C67.5659 64.9399 65.6166 66.1529 63.4402 66.6801C61.1838 67.0995 58.852 66.7473 56.8202 65.6801C56.122 66.2324 55.3515 66.6866 54.5302 67.0301C53.4061 67.4951 52.1962 67.7166 50.9802 67.6801C48.5755 67.7266 46.2399 66.8744 44.4302 65.2901C42.9324 63.8069 41.6891 62.0872 40.7502 60.2001L34.1902 48.8001H29.1102C28.8805 50.1066 28.3649 51.3462 27.6002 52.4301L27.5302 52.5301C26.835 53.3878 25.9398 54.0616 24.9233 54.4923C23.9067 54.923 22.7999 55.0974 21.7002 55.0001H10.6102C9.59921 55.2238 8.54624 55.1658 7.5659 54.8326C6.58556 54.4993 5.71542 53.9035 5.05019 53.1101C3.75019 51.6001 2.85019 49.1101 2.47019 45.5401V45.4101L0.170189 17.0501C-0.289811 13.9901 0.170189 11.8201 1.45019 10.3401C2.13955 9.59651 2.97957 9.00851 3.91421 8.61534C4.84885 8.22218 5.85659 8.03288 6.87019 8.06008H21.1002C23.0409 7.93278 24.9765 8.37412 26.6702 9.33008C27.8495 10.0807 28.7138 11.2366 29.1002 12.5801H38.6502C40.8346 11.0147 43.2369 9.7782 45.7802 8.91008C48.4426 8.10994 51.246 7.89167 54.0002 8.27008L57.2702 4.38008L57.3902 4.25008C58.2881 3.39795 59.2973 2.67135 60.3902 2.09008C61.5582 1.48968 62.789 1.02016 64.0602 0.690084C66.1177 0.18612 68.2324 -0.0458573 70.3502 8.38004e-05C72.5948 0.0505995 74.8262 0.359298 77.0002 0.920084C80.8102 1.92008 84.1002 4.23008 87.3002 6.47008C88.0702 7.01008 88.8302 7.54008 89.6502 8.09008L94.3002 11.1801H94.3302ZM15.7702 38.7601C16.2971 38.7581 16.8128 38.9127 17.2518 39.2042C17.6907 39.4957 18.0332 39.9111 18.2358 40.3975C18.4383 40.884 18.4919 41.4196 18.3895 41.9366C18.2872 42.4535 18.0337 42.9284 17.6611 43.301C17.2885 43.6736 16.8136 43.9271 16.2967 44.0294C15.7797 44.1318 15.2441 44.0782 14.7576 43.8757C14.2712 43.6731 13.8558 43.3306 13.5643 42.8917C13.2728 42.4527 13.1182 41.937 13.1202 41.4101C13.1228 40.7081 13.4029 40.0356 13.8993 39.5392C14.3957 39.0428 15.0682 38.7627 15.7702 38.7601ZM86.3602 50.9201C86.1492 50.8281 85.961 50.6909 85.8089 50.518C85.6568 50.3452 85.5446 50.1411 85.4802 49.9201L70.0602 22.0901C68.3502 19.2301 66.8102 19.1501 65.3102 20.0401C64.1251 20.8237 63.0168 21.7177 62.0002 22.7101C61.3202 23.3301 60.6402 23.9501 60.0802 24.4101L57.3502 26.6601C55.6108 28.0752 53.4922 28.9449 51.2602 29.1601C49.9525 29.277 48.635 29.1063 47.4002 28.6601C46.1844 28.2102 45.1107 27.4438 44.2902 26.4401C43.3573 25.2621 42.803 23.8292 42.7002 22.3301C42.6843 22.1064 42.7163 21.882 42.7939 21.6716C42.8715 21.4613 42.9929 21.2699 43.1502 21.1101L51.4802 11.2001C49.8511 11.1607 48.2265 11.387 46.6702 11.8701C44.3013 12.6983 42.0674 13.8709 40.0402 15.3501C39.7577 15.5773 39.4025 15.6945 39.0402 15.6801H29.4102V45.6801H35.0802C35.3652 45.6797 35.6448 45.7579 35.8883 45.9061C36.1317 46.0543 36.3296 46.2667 36.4602 46.5201L43.4602 58.6701C44.2389 60.2578 45.25 61.7206 46.4602 63.0101C47.7368 64.0909 49.3683 64.6609 51.0402 64.6101C51.8278 64.6326 52.6114 64.4895 53.3402 64.1901C53.8077 63.9982 54.2481 63.7461 54.6502 63.4401L50.1402 55.0001C49.9784 54.644 49.9581 54.2396 50.0836 53.8691C50.2091 53.4986 50.4708 53.1897 50.8157 53.0052C51.1606 52.8206 51.5628 52.7743 51.9407 52.8755C52.3185 52.9767 52.6437 53.2179 52.8502 53.5501L57.7902 62.7801C59.1939 63.6776 60.8827 64.0173 62.5242 63.7323C64.1657 63.4472 65.6412 62.5582 66.6602 61.2401L59.5502 50.0601C59.3276 49.7179 59.2499 49.3013 59.3343 48.9019C59.4187 48.5025 59.6582 48.153 60.0002 47.9301C60.3462 47.7146 60.7629 47.6431 61.161 47.7309C61.5591 47.8188 61.907 48.059 62.1302 48.4001L69.6202 60.1701C70.8089 60.6967 72.1399 60.8094 73.4002 60.4901C74.7295 60.0708 75.919 59.2962 76.8402 58.2501L70.0702 45.4701C69.8753 45.1081 69.8321 44.6834 69.9503 44.2896C70.0684 43.8958 70.3382 43.565 70.7002 43.3701C71.0622 43.1751 71.4868 43.132 71.8807 43.2502C72.2745 43.3683 72.6053 43.6381 72.8002 44.0001L79.8002 57.2201C80.7101 57.7347 81.7725 57.9118 82.8002 57.7201C83.6962 57.577 84.5401 57.205 85.2502 56.6401C85.92 56.1308 86.4245 55.4351 86.7002 54.6401C87.0045 53.6468 86.9223 52.5753 86.4702 51.6401C86.3724 51.4169 86.3311 51.173 86.3502 50.9301L86.3602 50.9201ZM106.68 38.7601C107.206 38.764 107.719 38.9237 108.154 39.2188C108.589 39.5139 108.926 39.9313 109.124 40.4183C109.322 40.9052 109.372 41.4399 109.266 41.9549C109.16 42.4698 108.904 42.9419 108.53 43.3115C108.157 43.6811 107.682 43.9316 107.166 44.0315C106.65 44.1314 106.115 44.0762 105.631 43.8727C105.146 43.6693 104.732 43.3268 104.442 42.8885C104.152 42.4502 103.998 41.9357 104 41.4101C104.003 40.7081 104.283 40.0356 104.779 39.5392C105.276 39.0428 105.948 38.7627 106.65 38.7601H106.68Z" fill="#0BA39C"/>
</g>
<defs>
<clipPath id="clip0_175_237">
<rect width="122.88" height="67.72" fill="white"/>
</clipPath>
</defs>
</svg>
