<svg width="140" height="123" viewBox="0 0 140 123" fill="none" xmlns="http://www.w3.org/2000/svg">
<g clip-path="url(#clip0_299_15)">
<path d="M11.86 68.08L7.62 92.09C7.55 92.42 7.42 92.72 7.22 92.95C5.71 94.9 4.76 96.57 4.48 97.92C4.28 98.92 4.48 99.72 5.15 100.35L21.71 116.91C22.76 117.92 23.99 118.56 25.45 118.82C27.05 119.12 28.91 118.95 31.05 118.37C31.08 118.37 31.13 118.35 31.17 118.35C31.98 118.13 33.05 117.87 34.06 117.62C38.5 116.54 42.37 115.59 45.97 112.33L50.59 107.51C50.64 107.43 50.71 107.36 50.77 107.29C50.84 107.22 51.29 106.77 51.9 106.19C55.06 103.1 58.97 99.29 56.59 95.95L54.74 94.1C53.84 94.96 52.89 95.81 51.98 96.63C51.15 97.36 50.37 98.04 49.65 98.76C48.89 99.52 47.65 99.52 46.89 98.76C46.13 97.99 46.13 96.76 46.89 96C47.6 95.28 48.49 94.5 49.4 93.69C52.53 90.93 56.12 87.77 54.19 85.01L52.36 83.18C52.26 83.08 52.18 82.96 52.09 82.85C51.04 83.93 49.88 84.96 48.75 85.96C47.92 86.69 47.14 87.37 46.42 88.09C45.65 88.86 44.42 88.86 43.66 88.09C42.89 87.33 42.89 86.09 43.66 85.33C44.37 84.62 45.26 83.83 46.17 83.02C49.3 80.26 52.89 77.1 50.96 74.34L49.13 72.51C49 72.38 48.9 72.24 48.81 72.09L43.44 77.46C42.67 78.22 41.44 78.22 40.68 77.46C39.92 76.69 39.92 75.46 40.68 74.7L50.75 64.63C53.16 62.22 53.71 59.71 53.08 57.81C52.85 57.11 52.46 56.5 51.98 56.01C51.73 55.76 51.45 55.54 51.14 55.35H51.13C50.98 55.42 50.87 55.27 50.73 55.13C50.56 55.05 50.37 54.97 50.19 54.91C48.52 54.36 46.35 54.75 44.15 56.6C44.12 56.63 44.09 56.66 44.06 56.68C43.82 56.88 43.58 57.1 43.34 57.34L22.44 78.27C21.68 79.03 20.44 79.03 19.68 78.27C18.98 77.57 18.92 76.49 19.5 75.72L11.86 68.08ZM25.08 70.11L25.75 69.44L39.54 55.65C38.11 54.99 36.78 54.06 35.6 52.88C30.35 47.63 30.35 39.15 35.6 33.9C40.85 28.65 49.33 28.65 54.58 33.9C59.83 39.15 59.83 47.63 54.58 52.88C54.54 52.92 54.49 52.97 54.45 53.01C54.55 53.1 54.66 53.2 54.76 53.3C55.19 53.73 55.56 54.2 55.89 54.7L72.99 37.6C70.37 34.98 70.37 30.7 72.99 28.07L60.25 15.33C57.63 17.95 53.35 17.95 50.72 15.33L15.28 50.77C17.9 53.39 17.9 57.67 15.28 60.3L25.08 70.11ZM55.14 65.57C54.68 66.21 54.15 66.85 53.52 67.47L51.52 69.47L51.5 69.42C51.65 69.5 51.78 69.6 51.92 69.74L53.83 71.65C53.93 71.75 54.03 71.88 54.11 72C56.26 74.94 55.92 77.57 54.46 79.97C54.73 80.07 54.98 80.22 55.17 80.42L57.08 82.33C57.18 82.43 57.28 82.56 57.36 82.68C59.67 85.86 59.09 88.63 57.36 91.16C57.44 91.21 57.51 91.28 57.59 91.36L59.5 93.27C59.6 93.37 59.7 93.5 59.78 93.62C64.22 99.69 58.93 104.84 54.68 109L53.58 110.1L48.84 115.07L48.69 115.22C44.35 119.16 40.04 120.21 35.07 121.42C34.24 121.62 33.39 121.84 32.23 122.13C32.2 122.13 32.18 122.15 32.15 122.15C29.46 122.88 27.01 123.06 24.82 122.67C22.59 122.27 20.66 121.27 19.05 119.69L2.52 103.15C0.84 101.54 0.28 99.54 0.74 97.18C1.11 95.28 2.2 93.19 3.93 90.93L8.35 65.89V65.79C8.39 65.48 8.45 65.13 8.52 64.75L0 56.23L56.23 0L88.47 32.24L55.14 65.57Z" fill="#0BA39C"/>
</g>
<g clip-path="url(#clip1_299_15)">
<path fill-rule="evenodd" clip-rule="evenodd" d="M120.791 58.8101L95.8071 73.9294H102.912L121.358 62.7667L124.066 61.127L131.875 73.9294H136.421C137.411 73.9294 138.306 74.3333 138.956 74.9749C139.606 75.6225 140.012 76.5136 140.012 77.4938V119.43C140.012 120.41 139.606 121.301 138.962 121.943V121.948C138.312 122.596 137.417 122.994 136.427 122.994H73.5913C72.601 122.994 71.7062 122.596 71.0559 121.948V121.943C70.4057 121.301 70 120.41 70 119.436V77.4938C70 76.5136 70.4057 75.6165 71.0499 74.9749C71.7002 74.3274 72.595 73.9294 73.5853 73.9294H75.0767L113.865 50.4574C114.36 50.1604 114.921 50 115.499 50C115.75 50 116.001 50.0297 116.245 50.0891C117.056 50.2852 117.76 50.7961 118.19 51.509L122.145 57.9903L120.791 58.8101ZM73.5137 77.1017C73.3765 77.2502 73.2632 77.4166 73.1796 77.6007V82.7633H136.82V77.4938C136.82 77.3809 136.779 77.28 136.707 77.2146H136.701C136.629 77.1433 136.528 77.0958 136.415 77.0958H73.5853C73.5614 77.0958 73.5376 77.0958 73.5137 77.1017ZM79.533 100.324H90.8974V104.56H79.533V100.324ZM79.533 110.352H111.3V114.172H79.533V110.352ZM121.429 100.324H132.794V104.56H121.429V100.324ZM107.464 100.324H118.828V104.56H107.464V100.324ZM93.4984 100.324H104.863V104.56H93.4984V100.324ZM136.82 94.6388H73.1796V119.43C73.1796 119.542 73.2214 119.643 73.299 119.715H73.3049C73.3825 119.792 73.4839 119.834 73.5853 119.834H136.421C136.528 119.834 136.629 119.786 136.707 119.715C136.785 119.638 136.826 119.537 136.826 119.43V94.6388H136.82Z" fill="#0BA39C"/>
</g>
<defs>
<clipPath id="clip0_299_15">
<rect width="88.47" height="122.88" fill="white"/>
</clipPath>
<clipPath id="clip1_299_15">
<rect width="70" height="73" fill="white" transform="translate(70 50)"/>
</clipPath>
</defs>
</svg>
