<svg width="121" height="123" viewBox="0 0 121 123" fill="none" xmlns="http://www.w3.org/2000/svg">
<g clip-path="url(#clip0_175_245)">
<path d="M110.82 30C110.147 29.0379 109.128 28.3738 107.976 28.147C106.825 27.9202 105.63 28.1484 104.643 28.7837C103.655 29.4189 102.953 30.4119 102.682 31.5541C102.411 32.6964 102.593 33.8991 103.19 34.91C104.698 37.2439 106.009 39.699 107.11 42.25C107.589 43.3533 108.486 44.2212 109.605 44.6629C110.724 45.1045 111.972 45.0837 113.075 44.605C114.178 44.1263 115.046 43.2289 115.488 42.1102C115.93 40.9916 115.909 39.7433 115.43 38.64C114.135 35.6375 112.593 32.7476 110.82 30ZM31.0701 81.65V73.82L42.8001 61.82C43.4727 61.1695 44.1008 60.4747 44.6801 59.74C45.1504 59.161 45.553 58.5303 45.8801 57.86C46.1607 57.2799 46.3076 56.6443 46.3101 56C46.3324 55.3905 46.1908 54.7861 45.9001 54.25C45.6226 53.7766 45.1816 53.4209 44.6601 53.25C43.9627 53.0257 43.2324 52.9208 42.5001 52.94H31.6801V45.12C33.3401 44.7533 35.1935 44.42 37.2401 44.12C39.6044 43.778 41.9914 43.6176 44.3801 43.64C46.7742 43.536 49.1624 43.9522 51.3801 44.86C52.993 45.5777 54.2902 46.8571 55.0301 48.46C55.8085 50.3093 56.1802 52.3044 56.1201 54.31C56.1386 55.8419 55.9159 57.3673 55.4601 58.83C55.0184 60.1868 54.3781 61.4708 53.5601 62.64C52.6633 63.9068 51.6596 65.0945 50.5601 66.19L44.0601 72.85H57.1601V81.69L31.0701 81.65ZM77.7301 81.65V74.65H62.0001L60.3001 70.27L71.2301 43.9H81.2301L72.0001 66.36H77.6901V60.77L79.5701 55.89H87.5701V66.36H90.5701V73.16L87.5701 74.69V81.69L77.7301 81.65ZM102.93 16.41C103.116 16.9144 103.227 17.4433 103.26 17.98C103.45 19.1838 103.199 20.4158 102.552 21.4487C101.905 22.4816 100.906 23.2457 99.7401 23.6L86.2701 27.72C84.9904 28.1072 83.6094 27.9702 82.4307 27.3391C81.252 26.7081 80.3723 25.6346 79.9851 24.355C79.5979 23.0753 79.7349 21.6942 80.366 20.5156C80.997 19.3369 82.0704 18.4572 83.3501 18.07L84.6301 17.68C81.3963 15.9162 77.9793 14.5112 74.4401 13.49C67.4016 11.4514 60.0073 10.9483 52.7574 12.0148C45.5076 13.0813 38.5714 15.6925 32.4181 19.6717C26.2648 23.6509 21.038 28.9053 17.0911 35.0794C13.1443 41.2535 10.5696 48.2033 9.54117 55.4586C8.51276 62.7139 9.05464 70.1055 11.1302 77.1332C13.2057 84.161 16.7664 90.661 21.5715 96.1935C26.3765 101.726 32.3138 106.162 38.9816 109.201C45.6495 112.24 52.8923 113.812 60.2201 113.81C61.5548 113.842 62.8903 113.798 64.2201 113.68C66.1434 113.545 68.0569 113.295 69.9501 112.93C70.5469 112.788 71.1663 112.768 71.7709 112.872C72.3755 112.976 72.9528 113.202 73.4678 113.535C73.9829 113.868 74.4251 114.302 74.7677 114.811C75.1103 115.32 75.3462 115.893 75.4612 116.496C75.5761 117.098 75.5678 117.718 75.4366 118.317C75.3055 118.916 75.0542 119.483 74.698 119.982C74.3418 120.482 73.8881 120.904 73.3643 121.223C72.8404 121.543 72.2573 121.752 71.6501 121.84C69.4089 122.263 67.1452 122.557 64.8701 122.72C64.1801 122.72 60.9601 122.88 60.2401 122.88C51.0268 122.89 41.934 120.787 33.6612 116.731C25.3885 112.676 18.1564 106.777 12.5214 99.4874C6.88646 92.1982 2.99884 83.7134 1.15772 74.686C-0.683408 65.6585 -0.428963 56.329 1.90147 47.4153C4.23191 38.5016 8.57621 30.2413 14.6001 23.2701C20.624 16.2989 28.1669 10.8026 36.6484 7.20409C45.1299 3.60558 54.3238 2.0008 63.5229 2.51325C72.7219 3.0257 81.6808 5.6417 89.7101 10.16L88.4501 6.85998C88.1834 6.2335 88.0459 5.55963 88.0457 4.87874C88.0456 4.19784 88.1829 3.52393 88.4494 2.89736C88.7159 2.27079 89.1062 1.70445 89.5967 1.23226C90.0873 0.760079 90.6681 0.391758 91.3044 0.149363C91.9407 -0.0930316 92.6194 -0.204514 93.2997 -0.178408C93.9801 -0.152302 94.6483 0.0108564 95.2641 0.301295C95.88 0.591733 96.4308 1.00348 96.8838 1.51186C97.3367 2.02025 97.6824 2.61483 97.9001 3.25998L102.9 16.41H102.93ZM85.5301 107.26C84.4825 107.85 83.7122 108.832 83.3887 109.99C83.0652 111.148 83.215 112.387 83.8051 113.435C84.3952 114.483 85.3773 115.253 86.5354 115.576C87.6934 115.9 88.9325 115.75 89.9801 115.16C92.8433 113.569 95.5605 111.729 98.1001 109.66C98.5889 109.294 98.9989 108.834 99.3056 108.306C99.6124 107.779 99.8096 107.195 99.8855 106.589C99.9614 105.983 99.9144 105.369 99.7474 104.782C99.5803 104.195 99.2966 103.647 98.9132 103.173C98.5298 102.698 98.0546 102.305 97.5159 102.018C96.9773 101.731 96.3863 101.555 95.7784 101.502C95.1704 101.448 94.5578 101.518 93.9774 101.707C93.3969 101.896 92.8605 102.199 92.4001 102.6C90.2524 104.353 87.9534 105.913 85.5301 107.26ZM103.4 90.26C102.764 91.2797 102.558 92.5106 102.829 93.6817C103.1 94.8529 103.825 95.8685 104.845 96.505C105.865 97.1415 107.096 97.3468 108.267 97.0759C109.438 96.8049 110.454 96.0797 111.09 95.06C112.823 92.2885 114.331 89.3826 115.6 86.37C115.859 85.8156 116.004 85.2146 116.024 84.603C116.045 83.9915 115.943 83.382 115.722 82.8112C115.501 82.2404 115.168 81.7201 114.741 81.2815C114.314 80.843 113.803 80.4952 113.239 80.2591C112.674 80.0231 112.068 79.9036 111.456 79.9078C110.844 79.912 110.239 80.0399 109.678 80.2838C109.117 80.5277 108.61 80.8825 108.19 81.3269C107.769 81.7713 107.443 82.2962 107.23 82.87C106.154 85.4322 104.873 87.9035 103.4 90.26ZM111.17 66.72C111.179 67.8547 111.613 68.9449 112.387 69.7749C113.16 70.6049 114.217 71.1143 115.349 71.2023C116.48 71.2903 117.603 70.9505 118.496 70.2501C119.389 69.5497 119.986 68.5397 120.17 67.42C120.43 64.1618 120.43 60.8881 120.17 57.63C120.182 56.9946 120.06 56.3638 119.813 55.7784C119.565 55.193 119.198 54.6661 118.734 54.2317C118.27 53.7973 117.72 53.4651 117.12 53.2567C116.52 53.0483 115.882 52.9682 115.249 53.0217C114.616 53.0752 114.001 53.261 113.444 53.5671C112.887 53.8733 112.4 54.293 112.016 54.799C111.631 55.305 111.358 55.8861 111.212 56.5047C111.066 57.1233 111.052 57.7656 111.17 58.39C111.39 61.1623 111.39 63.9477 111.17 66.72Z" fill="#0BA39C"/>
</g>
<defs>
<clipPath id="clip0_175_245">
<rect width="120.39" height="122.88" fill="white"/>
</clipPath>
</defs>
</svg>
