<svg width="86" height="69" viewBox="0 0 86 69" fill="none" xmlns="http://www.w3.org/2000/svg">
<g clip-path="url(#clip0_181_678)">
<path d="M85.2186 23.9904V43.1688C85.2186 44.9133 84.8984 46.5442 84.2566 48.062C83.6155 49.5765 82.661 50.9512 81.3885 52.1887C80.8374 52.7218 80.2581 53.1995 79.6527 53.6202C79.0302 54.0523 78.3939 54.4189 77.7445 54.7199C77.7102 54.736 77.6751 54.7514 77.6401 54.7648C76.8086 55.1414 75.9428 55.4243 75.0434 55.615C74.1109 55.8123 73.1448 55.9113 72.147 55.9113H66.2761H66.2644H66.2527H66.2403H66.2287H65.9153C66.0397 56.2973 66.1696 56.6799 66.3042 57.0592C66.6856 58.1315 67.1151 59.1878 67.5926 60.2239L67.5995 60.238L67.6002 60.2373C68.0303 61.1946 68.6062 62.1277 69.3242 63.0375C70.0643 63.9753 70.9693 64.9052 72.035 65.8249C72.7971 66.4818 72.8685 67.6163 72.1938 68.3582C71.7189 68.8806 71.0009 69.0693 70.3508 68.9061C68.0606 68.3281 65.8988 67.6063 63.8621 66.7421C61.8247 65.8778 59.9028 64.8643 58.0949 63.7051L58.0915 63.7104C56.296 62.5672 54.6152 61.2802 53.054 59.852C51.7313 58.6412 50.4951 57.3281 49.3489 55.9106H48.725H48.7133H48.7017H48.6893H48.6776H42.8073C41.5849 55.9106 40.4147 55.7621 39.2974 55.4685C38.1787 55.1741 37.1123 54.7266 36.1008 54.1286C35.2309 53.6155 34.9526 52.5131 35.4789 51.6656C36.006 50.818 37.1384 50.5478 38.009 51.0609C38.7023 51.4702 39.4499 51.7813 40.2518 51.9927C41.0489 52.2021 41.901 52.3084 42.808 52.3084H48.6783H48.69H48.7023H48.714H48.7257H50.2525V52.3158C50.8119 52.3158 51.365 52.564 51.7271 53.0329C52.8919 54.5474 54.1782 55.9481 55.5848 57.2345C56.9735 58.5048 58.4859 59.6607 60.1165 60.6989L60.1124 60.7042L60.1165 60.7062C61.6653 61.6996 63.3268 62.5813 65.1011 63.3485C64.7664 62.7953 64.4716 62.2368 64.2181 61.6729C63.7123 60.5731 63.2465 59.4232 62.8211 58.2272C62.4164 57.09 62.0543 55.9213 61.734 54.7253C61.6626 54.5333 61.6234 54.3259 61.6234 54.1099C61.6234 53.1152 62.4521 52.3091 63.4732 52.3091H66.2293H66.241H66.2534H66.2651H66.2768H72.1477C72.8912 52.3091 73.5962 52.2389 74.2628 52.0977C74.897 51.9639 75.5003 51.7679 76.0713 51.5117C76.0988 51.4977 76.127 51.4836 76.1558 51.4696C76.6382 51.2462 77.091 50.9873 77.515 50.6936C77.9562 50.3872 78.3815 50.0374 78.789 49.6427C79.7098 48.7463 80.3955 47.765 80.847 46.6987C81.2964 45.6365 81.5204 44.4598 81.5204 43.1701V23.9917C81.5204 22.7094 81.2964 21.5374 80.847 20.4765C80.3955 19.4115 79.7098 18.4302 78.789 17.5338L78.7814 17.5271C77.8606 16.6301 76.8526 15.9632 75.7594 15.5237C74.6695 15.0862 73.4657 14.8681 72.1484 14.8681H66.856H62.9998C61.978 14.8681 61.1493 14.0614 61.1493 13.0667C61.1493 12.072 61.978 11.2652 62.9998 11.2652H66.856H72.1484C73.9329 11.2652 75.6034 11.577 77.1611 12.2024C78.7113 12.8252 80.122 13.7523 81.3905 14.9872L81.3946 14.9905L81.3981 14.9939L81.3994 14.9952C82.6672 16.2307 83.6189 17.6027 84.2587 19.1112C84.8984 20.6256 85.2186 22.2525 85.2186 23.9904ZM34.0435 3.76646H23.0045H13.8552C12.5379 3.76646 11.334 3.98453 10.2442 4.42202C9.15028 4.86151 8.14224 5.52911 7.22146 6.42548L7.21459 6.43284C6.29313 7.32921 5.60805 8.31054 5.15659 9.37548C4.7072 10.4364 4.48319 11.6084 4.48319 12.8907V32.0691C4.48319 33.3595 4.7072 34.5355 5.15659 35.5984C5.60805 36.6654 6.29382 37.6467 7.21459 38.5424C8.14086 39.4381 9.15371 40.1084 10.2525 40.5505C11.3409 40.988 12.542 41.2088 13.8552 41.2088H22.5276C23.5494 41.2088 24.3781 42.0149 24.3781 43.0096C24.3781 43.2256 24.3389 43.433 24.2675 43.625C23.9479 44.8204 23.5851 45.9897 23.1804 47.1269C22.7544 48.3229 22.2892 49.4735 21.7828 50.5725C21.5292 51.1365 21.2351 51.695 20.8998 52.2482C22.6747 51.481 24.3355 50.5993 25.885 49.6059L25.8884 49.6039L25.885 49.5986C27.5156 48.5604 29.0273 47.4051 30.4167 46.1335C31.8233 44.8478 33.1096 43.4457 34.2744 41.9326C34.6358 41.463 35.1889 41.2155 35.749 41.2148V41.2081H43.1928C44.5059 41.2081 45.7071 40.9874 46.7955 40.5499C47.8943 40.1077 48.9071 39.4374 49.8341 38.5417C50.7548 37.6454 51.4406 36.664 51.8921 35.5978C52.3408 34.5348 52.5648 33.3588 52.5648 32.0684V12.8901C52.5648 11.6077 52.3408 10.4357 51.8921 9.37481C51.4406 8.30987 50.7548 7.32854 49.8341 6.43217L49.8265 6.42481C48.905 5.52844 47.8977 4.86084 46.8038 4.42135C45.7139 3.98386 44.5101 3.76579 43.1928 3.76579L34.0435 3.76646ZM23.0045 0.163574H34.0435H43.1921C44.9766 0.163574 46.6478 0.475298 48.2055 1.10075C49.755 1.72286 51.1651 2.65001 52.4335 3.88419L52.4349 3.88486L52.4384 3.88888L52.4425 3.89222C53.7103 5.12841 54.6626 6.5004 55.3024 8.01019C55.9455 9.52666 56.2651 11.1535 56.2651 12.8901V32.0684C56.2651 33.813 55.9449 35.4439 55.3024 36.9624C54.6619 38.4769 53.7068 39.8508 52.4349 41.089C51.1644 42.3172 49.7516 43.2464 48.1973 43.8711C46.643 44.4959 44.9746 44.8103 43.1921 44.8103H36.6512C35.5043 46.2271 34.2689 47.5416 32.9461 48.7517C31.3842 50.1805 29.7042 51.4676 27.908 52.6108L27.9052 52.6054C26.0966 53.7647 24.1754 54.7781 22.138 55.6424C20.1013 56.5067 17.9395 57.2291 15.6493 57.8071C14.9999 57.9703 14.2812 57.781 13.8057 57.2585C13.1316 56.516 13.2024 55.3815 13.9651 54.7253C15.0316 53.8055 15.9358 52.8757 16.6766 51.9378C17.3946 51.0288 17.9698 50.0949 18.4006 49.1377H18.4013L18.4075 49.1236C18.8851 48.0874 19.3145 47.0312 19.6959 45.9596C19.8306 45.5803 19.9604 45.1976 20.0848 44.811H13.8545C12.072 44.811 10.4036 44.4959 8.85 43.8718C7.29499 43.2464 5.88222 42.3172 4.61237 41.0897C3.34047 39.8515 2.38534 38.4775 1.74492 36.9631C1.10244 35.4446 0.782227 33.8137 0.782227 32.0691V12.8907C0.782227 11.1535 1.10244 9.52666 1.74492 8.01086C2.38465 6.50241 3.33634 5.12975 4.60413 3.89423L4.6055 3.89289L4.60894 3.88954L4.61237 3.88553C5.88153 2.65135 7.29155 1.7242 8.84175 1.10142C10.4002 0.475298 12.0713 0.163574 13.8552 0.163574H23.0045Z" fill="#EFEEEE"/>
</g>
<defs>
<clipPath id="clip0_181_678">
<rect width="84.4364" height="68.8" fill="white" transform="translate(0.782227 0.163574)"/>
</clipPath>
</defs>
</svg>
