<svg width="68" height="79" viewBox="0 0 68 79" fill="none" xmlns="http://www.w3.org/2000/svg">
<g clip-path="url(#clip0_96_326)">
<path d="M34.0148 21.5456C24.3613 21.5456 16.5747 29.3845 16.5747 39.103C16.5747 48.8214 24.3613 56.6604 34.0148 56.6604C43.6684 56.6604 51.455 48.8214 51.455 39.103C51.455 29.3845 43.6684 21.5456 34.0148 21.5456ZM34.0148 50.5176C27.7765 50.5176 22.6764 45.3986 22.6764 39.103C22.6764 32.8074 27.7613 27.6884 34.0148 27.6884C40.2684 27.6884 45.3532 32.8074 45.3532 39.103C45.3532 45.3986 40.2532 50.5176 34.0148 50.5176ZM56.2363 20.8274C56.2363 23.1042 54.4148 24.9226 52.1684 24.9226C49.9068 24.9226 48.1006 23.0889 48.1006 20.8274C48.1006 18.5659 49.922 16.7322 52.1684 16.7322C54.4148 16.7322 56.2363 18.5659 56.2363 20.8274ZM67.7872 24.9837C67.5291 19.498 66.2845 14.6388 62.2925 10.6353C58.3157 6.63176 53.489 5.37876 48.0398 5.10371C42.4238 4.78281 25.5907 4.78281 19.9747 5.10371C14.5407 5.36348 9.71395 6.61648 5.72199 10.62C1.73002 14.6235 0.500558 19.4827 0.227344 24.9685C-0.0914062 30.6223 -0.0914062 47.5684 0.227344 53.2222C0.485379 58.708 1.73002 63.5672 5.72199 67.5707C9.71395 71.5742 14.5256 72.8272 19.9747 73.1023C25.5907 73.4232 42.4238 73.4232 48.0398 73.1023C53.489 72.8425 58.3157 71.5895 62.2925 67.5707C66.2693 63.5672 67.514 58.708 67.7872 53.2222C68.1059 47.5684 68.1059 30.6376 67.7872 24.9837ZM60.5318 59.2886C59.3479 62.2836 57.0559 64.591 54.0657 65.7982C49.5881 67.586 38.9631 67.1734 34.0148 67.1734C29.0666 67.1734 18.4265 67.5707 13.964 65.7982C10.989 64.6063 8.69699 62.2989 7.49788 59.2886C5.72199 54.7809 6.13181 44.0845 6.13181 39.103C6.13181 34.1215 5.73717 23.4098 7.49788 18.9173C8.68181 15.9224 10.9738 13.615 13.964 12.4078C18.4416 10.62 29.0666 11.0326 34.0148 11.0326C38.9631 11.0326 49.6032 10.6353 54.0657 12.4078C57.0407 13.5997 59.3327 15.9071 60.5318 18.9173C62.3077 23.4251 61.8979 34.1215 61.8979 39.103C61.8979 44.0845 62.3077 54.7961 60.5318 59.2886Z" fill="#494037"/>
</g>
<defs>
<clipPath id="clip0_96_326">
<rect width="68" height="78.2366" fill="white"/>
</clipPath>
</defs>
</svg>
