<svg width="27" height="31" viewBox="0 0 27 31" fill="none" xmlns="http://www.w3.org/2000/svg">
<g clip-path="url(#clip0_199_10)">
<path d="M13.0858 8.28849C9.37204 8.28849 6.37648 11.3042 6.37648 15.0429C6.37648 18.7817 9.37204 21.7973 13.0858 21.7973C16.7996 21.7973 19.7952 18.7817 19.7952 15.0429C19.7952 11.3042 16.7996 8.28849 13.0858 8.28849ZM13.0858 19.4342C10.6859 19.4342 8.72388 17.4649 8.72388 15.0429C8.72388 12.621 10.68 10.6517 13.0858 10.6517C15.4916 10.6517 17.4478 12.621 17.4478 15.0429C17.4478 17.4649 15.4858 19.4342 13.0858 19.4342ZM21.6345 8.0122C21.6345 8.8881 20.9338 9.58764 20.0696 9.58764C19.1996 9.58764 18.5047 8.88222 18.5047 8.0122C18.5047 7.14218 19.2054 6.43675 20.0696 6.43675C20.9338 6.43675 21.6345 7.14218 21.6345 8.0122ZM26.0782 9.61116C25.979 7.50077 25.5001 5.63139 23.9644 4.09122C22.4345 2.55104 20.5776 2.06901 18.4813 1.96319C16.3208 1.83974 9.84502 1.83974 7.68449 1.96319C5.59402 2.06313 3.73713 2.54517 2.2014 4.08534C0.665664 5.62552 0.192681 7.49489 0.0875742 9.60528C-0.0350508 11.7803 -0.0350508 18.2996 0.0875742 20.4747C0.186842 22.5851 0.665664 24.4544 2.2014 25.9946C3.73713 27.5348 5.58818 28.0168 7.68449 28.1226C9.84502 28.2461 16.3208 28.2461 18.4813 28.1226C20.5776 28.0227 22.4345 27.5407 23.9644 25.9946C25.4943 24.4544 25.9731 22.5851 26.0782 20.4747C26.2009 18.2996 26.2009 11.7862 26.0782 9.61116ZM23.2871 22.8085C22.8316 23.9606 21.9499 24.8483 20.7995 25.3127C19.0769 26.0005 14.9894 25.8418 13.0858 25.8418C11.1822 25.8418 7.08888 25.9946 5.37213 25.3127C4.22763 24.8542 3.3459 23.9665 2.88459 22.8085C2.2014 21.0743 2.35906 16.9593 2.35906 15.0429C2.35906 13.1265 2.20724 9.00567 2.88459 7.27738C3.34006 6.12519 4.22179 5.23753 5.37213 4.77313C7.09472 4.08534 11.1822 4.24406 13.0858 4.24406C14.9894 4.24406 19.0828 4.09122 20.7995 4.77313C21.944 5.23165 22.8258 6.11931 23.2871 7.27738C23.9703 9.01155 23.8126 13.1265 23.8126 15.0429C23.8126 16.9593 23.9703 21.0802 23.2871 22.8085Z" fill="#EFEEEE"/>
</g>
<defs>
<clipPath id="clip0_199_10">
<rect width="26.16" height="30.0981" fill="white"/>
</clipPath>
</defs>
</svg>
