<svg width="27" height="29" viewBox="0 0 27 29" fill="none" xmlns="http://www.w3.org/2000/svg">
<g clip-path="url(#clip0_175_100)">
<path d="M3.03083 3.87354C1.67673 3.87354 0.578125 5.0342 0.578125 6.46479C0.578125 7.27996 0.940921 8.04654 1.55921 8.5378L12.6782 17.3481C13.2607 17.8069 14.0578 17.8069 14.6403 17.3481L25.7593 8.5378C26.3775 8.04654 26.7403 7.27996 26.7403 6.46479C26.7403 5.0342 25.6417 3.87354 24.2876 3.87354H3.03083ZM0.578125 9.9198V21.1486C0.578125 23.0542 2.04464 24.6036 3.8484 24.6036H23.4701C25.2738 24.6036 26.7403 23.0542 26.7403 21.1486V9.9198L15.6214 18.7301C14.4564 19.6532 12.8621 19.6532 11.6971 18.7301L0.578125 9.9198Z" fill="#EFEEEE"/>
</g>
<defs>
<clipPath id="clip0_175_100">
<rect width="26.1622" height="27.6401" fill="white" transform="translate(0.578125 0.418457)"/>
</clipPath>
</defs>
</svg>
