<svg width="27" height="27" viewBox="0 0 27 27" fill="none" xmlns="http://www.w3.org/2000/svg">
<g clip-path="url(#clip0_175_192)">
<path d="M8.6959 1.29736C8.28984 0.316497 7.21934 -0.205574 6.19629 0.0739185L1.55566 1.33954C0.638086 1.59267 0 2.42587 0 3.37509C0 16.4216 10.5785 27.0001 23.625 27.0001C24.5742 27.0001 25.4074 26.362 25.6605 25.4444L26.9262 20.8038C27.2057 19.7808 26.6836 18.7102 25.7027 18.3042L20.6402 16.1948C19.7807 15.8362 18.784 16.0841 18.1986 16.8065L16.0682 19.4063C12.3557 17.6503 9.3498 14.6444 7.59375 10.9319L10.1936 8.80673C10.916 8.21611 11.1639 7.2247 10.8053 6.36513L8.6959 1.30263V1.29736Z" fill="#EFEEEE"/>
</g>
<defs>
<clipPath id="clip0_175_192">
<rect width="27" height="27" fill="white"/>
</clipPath>
</defs>
</svg>
