<svg width="68" height="71" viewBox="0 0 68 71" fill="none" xmlns="http://www.w3.org/2000/svg">
<path d="M34 1.10938C15.2177 1.10938 0 16.502 0 35.5C0 54.498 15.2177 69.8906 34 69.8906C52.7823 69.8906 68 54.498 68 35.5C68 16.502 52.7823 1.10938 34 1.10938ZM49.7661 24.5033C49.2589 29.9393 47.0379 43.1408 45.9137 49.2285C45.4339 51.8078 44.5016 52.6676 43.5968 52.7508C41.6226 52.9311 40.1282 51.4334 38.2089 50.1576C35.2202 48.1746 33.5202 46.9404 30.6274 44.999C27.2685 42.7664 29.4484 41.5322 31.354 39.5215C31.8613 38.9945 40.5532 30.9932 40.7177 30.2721C40.7452 30.175 40.7589 29.8422 40.5532 29.6619C40.3476 29.4816 40.0597 29.551 39.854 29.5926C39.5524 29.6573 34.7723 32.8514 25.5137 39.1748C24.161 40.1178 22.9317 40.5754 21.8258 40.5477C20.6056 40.5199 18.275 39.8543 16.5339 39.2857C14.4089 38.5924 12.7089 38.218 12.8597 37.0254C12.9328 36.406 13.7782 35.7727 15.396 35.1256C25.3035 30.762 31.9116 27.8823 35.2202 26.4863C44.6661 22.5203 46.6266 21.827 47.9016 21.7992C48.1895 21.7992 48.8065 21.8686 49.2177 22.2014C49.4862 22.4401 49.6572 22.7713 49.6976 23.1305C49.7717 23.584 49.7947 24.0446 49.7661 24.5033Z" fill="#494037"/>
</svg>
