<svg width="27" height="28" viewBox="0 0 27 28" fill="none" xmlns="http://www.w3.org/2000/svg">
<g clip-path="url(#clip0_199_12)">
<path d="M13.08 0.426758C5.85435 0.426758 0 6.34837 0 13.657C0 20.9657 5.85435 26.8873 13.08 26.8873C20.3056 26.8873 26.16 20.9657 26.16 13.657C26.16 6.34837 20.3056 0.426758 13.08 0.426758ZM19.1453 9.42655C18.9502 11.5178 18.0958 16.5965 17.6633 18.9385C17.4787 19.9307 17.12 20.2615 16.7719 20.2935C16.0125 20.3629 15.4376 19.7867 14.6992 19.2959C13.5494 18.533 12.8954 18.0582 11.7825 17.3114C10.4904 16.4525 11.329 15.9777 12.0621 15.2041C12.2572 15.0014 15.6011 11.9232 15.6644 11.6458C15.6749 11.6085 15.6802 11.4804 15.6011 11.4111C15.522 11.3417 15.4112 11.3684 15.3321 11.3844C15.216 11.4093 13.3771 12.6381 9.81527 15.0708C9.29489 15.4335 8.82197 15.6096 8.39652 15.5989C7.92711 15.5882 7.0305 15.3322 6.36068 15.1134C5.54318 14.8467 4.88918 14.7027 4.94719 14.2439C4.97532 14.0056 5.30056 13.762 5.92292 13.513C9.7344 11.8343 12.2766 10.7265 13.5494 10.1894C17.1833 8.66367 17.9375 8.39693 18.428 8.38626C18.5388 8.38626 18.7761 8.41294 18.9344 8.54097C19.0376 8.6328 19.1034 8.76021 19.119 8.8984C19.1475 9.07287 19.1563 9.25006 19.1453 9.42655Z" fill="#EFEEEE"/>
</g>
<defs>
<clipPath id="clip0_199_12">
<rect width="26.16" height="27.3141" fill="white"/>
</clipPath>
</defs>
</svg>
